<svg width="58" height="23" viewBox="0 0 58 23" fill="none" xmlns="http://www.w3.org/2000/svg">
<path d="M36.5677 12.0822C33.9918 12.1641 32.3808 12.6283 32.3808 14.3303C32.3808 15.4317 33.2546 16.624 35.4845 16.624C38.47 16.624 40.0628 14.9948 40.0628 12.3279V12.0366C39.0161 12.0275 37.7236 12.0366 36.5677 12.0822ZM42.9117 15.6046C42.9117 16.4329 42.939 17.2521 43.0118 17.9893H40.3632C40.2904 17.3795 40.2631 16.7788 40.2631 16.1962C38.834 17.9529 37.132 18.4626 34.7655 18.4626C31.2612 18.4626 29.3862 16.6149 29.3862 14.4669C29.3862 11.3631 31.9348 10.2709 36.3583 10.1707C37.5689 10.1434 38.9251 10.1434 40.0537 10.1434V9.84307C40.0537 7.76783 38.7248 6.91225 36.4129 6.91225C34.7018 6.91225 33.4366 7.6222 33.3092 8.84186H30.3237C30.6423 5.79271 33.8462 5.01904 36.6678 5.01904C40.0446 5.01904 42.9026 6.2205 42.9026 9.79756V15.6046H42.9117Z" fill="#382AEF"/>
<path d="M11.9569 10.5621C11.8477 7.90436 9.92719 6.90315 7.87015 6.90315C5.65837 6.90315 3.8926 8.02268 3.58313 10.5621H11.9569ZM3.51942 12.4553C3.67415 15.0403 5.44903 16.5603 7.89745 16.5603C9.59042 16.5603 11.1013 15.8686 11.611 14.3667H14.551C13.9776 17.4159 10.7373 18.4535 7.95206 18.4535C2.87318 18.4535 0.625 15.6592 0.625 11.891C0.625 7.74963 2.9551 5.01904 7.99757 5.01904C12.0115 5.01904 14.9515 7.12159 14.9515 11.6999V12.4553H3.51942Z" fill="#382AEF"/>
<path d="M22.2422 16.5148C24.8817 16.5148 26.693 14.6125 26.693 11.7362C26.693 8.86913 24.8817 6.95772 22.2422 6.95772C19.6117 6.95772 17.7913 8.86003 17.7913 11.7362C17.7913 14.6125 19.6117 16.5148 22.2422 16.5148ZM14.9515 0.0129395H17.7913V7.15797C19.1839 5.50141 21.1044 5.01901 22.9976 5.01901C26.1651 5.01901 29.6876 7.15797 29.6876 11.7727C29.6876 15.641 26.8842 18.4535 22.943 18.4535C20.8769 18.4535 18.9382 17.7162 17.7367 16.2417C17.7367 16.8242 17.7003 17.4159 17.6366 17.9802H14.8423C14.8878 17.0791 14.9424 15.9504 14.9424 15.0402V0.0129395H14.9515Z" fill="#382AEF"/>
<path d="M57.3939 5.49219L48.6014 22.7677H45.4157L47.946 17.971L41.3198 5.49219H44.6511L49.5207 15.2404L54.3811 5.49219H57.3939Z" fill="#382AEF"/>
</svg>
