<svg width="87" height="22" viewBox="0 0 87 22" fill="none" xmlns="http://www.w3.org/2000/svg">
<path d="M8.0064 8.41838C7.975 8.51504 7.975 8.63447 7.975 8.87333V13.1267C7.975 13.3655 7.975 13.485 8.0064 13.5816C8.06988 13.777 8.22303 13.9301 8.41838 13.9936C8.51504 14.025 8.63447 14.025 8.87333 14.025H13.1267C13.3655 14.025 13.485 14.025 13.5816 13.9936C13.777 13.9301 13.9301 13.777 13.9936 13.5816C14.025 13.485 14.025 13.3655 14.025 13.1267V8.87333C14.025 8.63447 14.025 8.51504 13.9936 8.41838C13.9301 8.22303 13.777 8.06988 13.5816 8.0064C13.485 7.975 13.3655 7.975 13.1267 7.975H8.87333C8.63447 7.975 8.51504 7.975 8.41838 8.0064C8.22303 8.06988 8.06988 8.22303 8.0064 8.41838Z" fill="#382AEF"/>
<path fill-rule="evenodd" clip-rule="evenodd" d="M0 4.4C0 3.71873 0 3.37809 0.0451428 3.09307C0.293638 1.52413 1.52413 0.293638 3.09307 0.0451428C3.37809 0 3.71873 0 4.4 0H17.6C18.2813 0 18.6219 0 18.9069 0.0451428C20.4759 0.293638 21.7064 1.52413 21.9549 3.09307C22 3.37809 22 3.71873 22 4.4V17.6C22 18.2813 22 18.6219 21.9549 18.9069C21.7064 20.4759 20.4759 21.7064 18.9069 21.9549C18.6219 22 18.2813 22 17.6 22H4.4C3.71873 22 3.37809 22 3.09307 21.9549C1.52413 21.7064 0.293638 20.4759 0.0451428 18.9069C0 18.6219 0 18.2813 0 17.6V4.4ZM4.125 5.21053C4.125 4.61101 4.61101 4.125 5.21053 4.125H16.7895C17.389 4.125 17.875 4.61101 17.875 5.21053V16.7895C17.875 17.389 17.389 17.875 16.7895 17.875H5.21053C4.61101 17.875 4.125 17.389 4.125 16.7895V5.21053Z" fill="#382AEF"/>
<path d="M32.8652 10.0219C32.1909 9.83624 31.5525 9.66122 31.0568 9.43818C30.1394 9.02411 29.7124 8.44996 29.7124 7.6325C29.7124 6.08722 31.1921 5.39141 32.6655 5.39141C34.0659 5.39141 35.2888 5.97623 36.11 7.03701L36.166 7.10958L37.3498 6.17473L37.2927 6.10216C36.203 4.69988 34.5859 3.9283 32.7395 3.9283C31.5103 3.9283 30.3836 4.2634 29.5687 4.87276C28.6544 5.55362 28.1704 6.5333 28.1704 7.70614C28.1704 10.4328 30.7133 11.0976 32.7574 11.6323C34.8259 12.183 36.0931 12.6013 36.0931 14.1935C36.0931 15.7612 34.8375 16.774 32.8948 16.774C31.9341 16.774 30.1553 16.5168 29.037 14.7922L28.9853 14.7111L27.7402 15.6214L27.7888 15.6951C28.8457 17.3108 30.67 18.2382 32.7997 18.2382C35.6925 18.2382 37.6373 16.5894 37.6373 14.137C37.6341 11.3335 34.9897 10.6067 32.8652 10.0219Z" fill="#382AEF"/>
<path d="M47.0715 7.97934V9.45525C46.2672 8.35285 45.0749 7.74776 43.683 7.74776C41.0406 7.74776 39.1868 9.90453 39.1868 12.994C39.1868 16.0835 41.0364 18.2232 43.683 18.2232C45.0844 18.2232 46.2767 17.6213 47.0715 16.5211V21.9979H48.4635V7.97934H47.0715ZM43.795 16.8562C42.2762 16.8562 40.6538 15.837 40.6538 12.977C40.6538 11.1115 41.4793 9.11802 43.795 9.11802C45.7841 9.11802 47.0715 10.6334 47.0715 12.977C47.0715 15.3205 45.7862 16.8615 43.7971 16.8615L43.795 16.8562Z" fill="#382AEF"/>
<path d="M57.6651 7.97934V13.5127C57.6651 15.4496 56.3513 16.8562 54.5419 16.8562C53.0389 16.8562 52.3075 15.9555 52.3075 14.1039V7.97934H50.9155V14.391C50.9155 16.7921 52.2082 18.2254 54.3728 18.2254C55.7214 18.2254 56.8798 17.648 57.6662 16.5926V17.997H59.0581V7.97934H57.6651Z" fill="#382AEF"/>
<path d="M65.4991 7.74989C64.0986 7.74989 62.7056 8.21625 61.6793 9.03051L61.6138 9.0828L62.3409 10.1969L62.4202 10.1276C63.2858 9.36987 64.5594 9.09988 65.461 9.09988C65.9715 9.09988 67.6383 9.20019 67.6383 10.4968C67.6383 11.644 66.2537 11.8575 64.9146 12.0656C64.7497 12.0912 64.5848 12.1168 64.4252 12.1435C63.4465 12.3078 61.1487 12.6942 61.1487 15.1561C61.1487 17.0493 62.4741 18.2264 64.6059 18.2264C65.9144 18.2264 66.9312 17.7761 67.634 16.8871V17.9981H69.0271V10.7252C69.0313 8.85763 67.7112 7.74989 65.4991 7.74989ZM64.7433 16.8615C64.0997 16.8615 62.6031 16.6876 62.6031 15.0825C62.6031 13.9662 63.3038 13.6333 64.6842 13.375L65.1164 13.2971C65.9821 13.1456 66.9555 12.977 67.6383 12.5415V13.9908C67.6436 16.1038 66.1427 16.8615 64.7433 16.8615Z" fill="#382AEF"/>
<path d="M77.0915 8.16823C76.7607 7.93024 76.2396 7.78831 75.6963 7.78831C75.1457 7.79562 74.6043 7.93197 74.1147 8.18661C73.6252 8.44125 73.2009 8.80723 72.8754 9.25569V7.97507H71.4834V17.9917H72.8754V12.6333C72.8754 10.2578 74.1976 9.19379 75.5071 9.19379C75.8903 9.18862 76.2698 9.26993 76.618 9.43177L76.712 9.48193L77.1475 8.20771L77.0915 8.16823Z" fill="#382AEF"/>
<path d="M82.1499 7.74989C79.4136 7.74989 77.4995 9.9152 77.4995 13.0143C77.4995 16.1305 79.4125 18.2232 82.2556 18.2232C84.2744 18.2232 85.4962 17.2393 86.1663 16.4144L86.2223 16.3461L85.214 15.4389L85.1537 15.5179C84.4974 16.3813 83.4975 16.8615 82.3349 16.8615C80.3172 16.8615 79.0024 15.4379 78.9675 13.2331H86.5774L86.5859 13.1509C86.6112 12.9127 86.6243 12.6733 86.625 12.4338C86.6282 9.67189 84.787 7.74989 82.1499 7.74989ZM79.0172 11.9887C79.2053 10.229 80.4113 9.09881 82.1119 9.09881C84.175 9.09881 85.0311 10.5737 85.1516 11.9887H79.0172Z" fill="#382AEF"/>
</svg>
